<svg xmlns="http://www.w3.org/2000/svg" viewBox="0 0 620 150"><defs><linearGradient id="b" x1="0" y1="0" x2="1" y2="1"><stop stop-color="#12B5FF"/><stop offset=".5" stop-color="#0878F9"/><stop offset="1" stop-color="#123BC8"/></linearGradient></defs><circle cx="75" cy="75" r="68" fill="#FFF9E9" stroke="url(#b)" stroke-width="9"/><path d="M38 103V49c0-8 9-12 15-6l22 23 22-23c6-6 15-2 15 6v54h-18V70L82 89a10 10 0 0 1-14 0L56 70v33H38Z" fill="url(#b)"/><path d="M79 49c-1-16 11-25 24-25 14 0 24 10 24 25" fill="none" stroke="#123BC8" stroke-width="8" stroke-linecap="round"/><path d="M89 92c15-23 28-27 42-31-6 16-17 27-35 32l-7 2Z" fill="#27BDF4"/><text x="158" y="79" font-family="Arial,sans-serif" font-size="54" font-weight="900" fill="#10213D">Market</text><text x="368" y="79" font-family="Arial,sans-serif" font-size="54" font-weight="900" fill="#0878F9">Kita</text><text x="160" y="108" font-family="Arial,sans-serif" font-size="13" font-weight="700" letter-spacing="5" fill="#31425C">BELI · JUAL · BERSAMA</text></svg>